<svg xmlns="http://www.w3.org/2000/svg" width="1024" height="1024" viewBox="0 0 1024 1024">
  <defs>
    <linearGradient id="bg" x1="0" y1="0" x2="1" y2="1">
      <stop offset="0" stop-color="#1B202C"/>
      <stop offset="0.55" stop-color="#111522"/>
      <stop offset="1" stop-color="#0A0C11"/>
    </linearGradient>
    <linearGradient id="accent" x1="0" y1="0" x2="1" y2="1">
      <stop offset="0" stop-color="#4B8DFF"/>
      <stop offset="0.6" stop-color="#8067FF"/>
      <stop offset="1" stop-color="#32C7A0"/>
    </linearGradient>
    <filter id="glow" x="-40%" y="-40%" width="180%" height="180%">
      <feGaussianBlur stdDeviation="28" result="blur"/>
      <feMerge><feMergeNode in="blur"/><feMergeNode in="SourceGraphic"/></feMerge>
    </filter>
  </defs>
  <rect x="24" y="24" width="976" height="976" rx="220" fill="url(#bg)"/>
  <circle cx="730" cy="260" r="210" fill="#8067FF" opacity="0.16" filter="url(#glow)"/>
  <circle cx="300" cy="760" r="190" fill="#32C7A0" opacity="0.12" filter="url(#glow)"/>
  <rect x="206" y="206" width="612" height="612" rx="148" fill="#141821" stroke="url(#accent)" stroke-width="18"/>
  <g fill="url(#accent)" opacity="0.92">
    <rect x="266" y="292" width="52" height="52" rx="16"/>
    <rect x="354" y="292" width="52" height="52" rx="16"/>
    <rect x="442" y="292" width="52" height="52" rx="16"/>
    <rect x="530" y="292" width="52" height="52" rx="16"/>
    <rect x="618" y="292" width="52" height="52" rx="16"/>
  </g>
  <path d="M512 372v250" fill="none" stroke="#F5F7FA" stroke-width="62" stroke-linecap="round"/>
  <path d="M382 532l130 130 130-130" fill="none" stroke="#F5F7FA" stroke-width="62" stroke-linecap="round" stroke-linejoin="round"/>
  <g fill="#F5F7FA" opacity="0.95">
    <rect x="266" y="680" width="52" height="52" rx="16"/>
    <rect x="354" y="680" width="52" height="52" rx="16"/>
    <rect x="442" y="680" width="52" height="52" rx="16"/>
    <rect x="530" y="680" width="52" height="52" rx="16"/>
    <rect x="618" y="680" width="52" height="52" rx="16"/>
  </g>
</svg>
